<svg xmlns="http://www.w3.org/2000/svg" viewBox="0 0 64 64" role="img" aria-label="Pingo">
  <style>
    .px { fill: #14161B; }
    @media (prefers-color-scheme: dark) { .px { fill: #F7F6F2; } }
  </style>
  <g class="px">
    <rect x="7" y="9" width="10" height="10" rx="2"/>
    <rect x="18" y="9" width="10" height="10" rx="2"/>
    <rect x="29" y="9" width="10" height="10" rx="2"/>
    <rect x="40" y="9" width="10" height="10" rx="2"/>
    <rect x="7" y="20" width="10" height="10" rx="2"/>
    <rect x="51" y="20" width="10" height="10" rx="2"/>
    <rect x="7" y="31" width="10" height="10" rx="2"/>
    <rect x="18" y="31" width="10" height="10" rx="2"/>
    <rect x="29" y="31" width="10" height="10" rx="2"/>
    <rect x="40" y="31" width="10" height="10" rx="2"/>
    <rect x="7" y="42" width="10" height="10" rx="2"/>
    <rect x="7" y="53" width="10" height="10" rx="2"/>
  </g>
  <rect x="51" y="2" width="10" height="10" rx="2" fill="#2E5BFF" transform="rotate(18 56 7)"/>
</svg>
